<svg xmlns="http://www.w3.org/2000/svg" xmlns:xlink="http://www.w3.org/1999/xlink" width="30" zoomAndPan="magnify" viewBox="0 0 375 374.999991" height="30" preserveAspectRatio="xMidYMid meet" version="1.0"><defs><clipPath id="8b008c31da"><path d="M 69.15625 77 L 305.839844 77 L 305.839844 313 L 69.15625 313 Z M 69.15625 77 " clip-rule="nonzero"/></clipPath><clipPath id="f9dc0765f5"><path d="M 71 77 L 305.839844 77 L 305.839844 202 L 71 202 Z M 71 77 " clip-rule="nonzero"/></clipPath></defs><g clip-path="url(#8b008c31da)"><path fill="#4dff00" d="M 70.285156 83.699219 L 151.796875 310.03125 C 153.242188 314.078125 159.023438 313.789062 160.179688 309.742188 L 192.84375 203.65625 C 193.132812 202.210938 194.289062 201.054688 195.734375 200.765625 L 301.820312 168.101562 C 305.867188 166.945312 306.15625 161.164062 302.109375 159.71875 L 75.777344 78.207031 C 72.308594 76.761719 68.839844 80.230469 70.285156 83.699219 Z M 70.285156 83.699219 " fill-opacity="1" fill-rule="nonzero"/></g><g clip-path="url(#f9dc0765f5)"><path fill="#3bc300" d="M 301.820312 168.101562 L 195.734375 200.765625 C 195.15625 201.054688 194.289062 201.34375 194 201.921875 L 71.441406 79.363281 C 72.597656 78.207031 74.332031 77.628906 76.0625 78.207031 L 302.109375 159.71875 C 306.15625 161.164062 306.15625 166.945312 301.820312 168.101562 Z M 301.820312 168.101562 " fill-opacity="1" fill-rule="nonzero"/></g></svg>