<svg xmlns="http://www.w3.org/2000/svg" xmlns:xlink="http://www.w3.org/1999/xlink" width="100" zoomAndPan="magnify" viewBox="0 0 375 374.999991" height="50" preserveAspectRatio="xMidYMid meet" version="1.0"><defs><g/><clipPath id="32413703a4"><path d="M 58.019531 221.703125 L 171.859375 221.703125 L 171.859375 234.359375 L 58.019531 234.359375 Z M 58.019531 221.703125 " clip-rule="nonzero"/></clipPath><clipPath id="35b14a49ac"><path d="M 186.675781 149.753906 L 300.515625 149.753906 L 300.515625 162.414062 L 186.675781 162.414062 Z M 186.675781 149.753906 " clip-rule="nonzero"/></clipPath></defs><g clip-path="url(#32413703a4)"><path fill="#ffffff" d="M 58.019531 221.703125 L 171.851562 221.703125 L 171.851562 234.359375 L 58.019531 234.359375 Z M 58.019531 221.703125 " fill-opacity="1" fill-rule="nonzero"/></g><g clip-path="url(#35b14a49ac)"><path fill="#179151" d="M 186.675781 149.753906 L 300.507812 149.753906 L 300.507812 162.414062 L 186.675781 162.414062 Z M 186.675781 149.753906 " fill-opacity="1" fill-rule="nonzero"/></g><g fill="#179151" fill-opacity="1"><g transform="translate(62.332647, 199.093614)"><g><path d="M 3.09375 0 L 3.09375 -8.453125 L 26.609375 -40.875 L 3.890625 -40.875 L 3.890625 -51.46875 L 41.75 -51.46875 L 41.75 -43 L 18.3125 -10.59375 L 42.34375 -10.59375 L 42.34375 0 Z M 3.09375 0 "/></g></g></g><g fill="#179151" fill-opacity="1"><g transform="translate(122.981783, 199.093614)"><g><path d="M 6.171875 0 L 6.171875 -51.46875 L 40 -51.46875 L 40 -41.609375 L 17.796875 -41.609375 L 17.796875 -30.953125 L 38 -30.953125 L 38 -21.171875 L 17.796875 -21.171875 L 17.796875 -9.921875 L 40.796875 -9.921875 L 40.796875 0 Z M 6.171875 0 "/></g></g></g><g fill="#ffffff" fill-opacity="1"><g transform="translate(184.453761, 234.025798)"><g><path d="M 6.171875 0 L 6.171875 -51.46875 L 28.15625 -51.46875 C 32.070312 -51.46875 35.476562 -50.753906 38.375 -49.328125 C 41.269531 -47.910156 43.5 -45.875 45.0625 -43.21875 C 46.632812 -40.570312 47.421875 -37.414062 47.421875 -33.75 C 47.421875 -29.96875 46.5625 -26.71875 44.84375 -24 C 43.125 -21.28125 40.722656 -19.234375 37.640625 -17.859375 L 48.296875 0 L 34.765625 0 L 25.578125 -16.03125 L 17.859375 -16.03125 L 17.859375 0 Z M 17.71875 -25.875 L 26.609375 -25.875 C 29.503906 -25.875 31.722656 -26.546875 33.265625 -27.890625 C 34.804688 -29.242188 35.578125 -31.171875 35.578125 -33.671875 C 35.578125 -36.171875 34.804688 -38.09375 33.265625 -39.4375 C 31.722656 -40.789062 29.503906 -41.46875 26.609375 -41.46875 L 17.71875 -41.46875 Z M 17.71875 -25.875 "/></g></g></g><g fill="#ffffff" fill-opacity="1"><g transform="translate(251.424957, 234.025798)"><g><path d="M 30.578125 1.03125 C 25.234375 1.03125 20.488281 -0.109375 16.34375 -2.390625 C 12.207031 -4.671875 8.972656 -7.816406 6.640625 -11.828125 C 4.316406 -15.847656 3.15625 -20.484375 3.15625 -25.734375 C 3.15625 -30.972656 4.316406 -35.601562 6.640625 -39.625 C 8.972656 -43.644531 12.207031 -46.789062 16.34375 -49.0625 C 20.488281 -51.34375 25.234375 -52.484375 30.578125 -52.484375 C 35.972656 -52.484375 40.726562 -51.34375 44.84375 -49.0625 C 48.957031 -46.789062 52.191406 -43.644531 54.546875 -39.625 C 56.898438 -35.601562 58.078125 -30.972656 58.078125 -25.734375 C 58.078125 -20.484375 56.898438 -15.847656 54.546875 -11.828125 C 52.191406 -7.816406 48.957031 -4.671875 44.84375 -2.390625 C 40.726562 -0.109375 35.972656 1.03125 30.578125 1.03125 Z M 15.078125 -25.734375 C 15.078125 -22.640625 15.738281 -19.914062 17.0625 -17.5625 C 18.382812 -15.21875 20.207031 -13.382812 22.53125 -12.0625 C 24.863281 -10.738281 27.546875 -10.078125 30.578125 -10.078125 C 33.671875 -10.078125 36.378906 -10.738281 38.703125 -12.0625 C 41.035156 -13.382812 42.847656 -15.21875 44.140625 -17.5625 C 45.441406 -19.914062 46.09375 -22.640625 46.09375 -25.734375 C 46.09375 -28.816406 45.441406 -31.535156 44.140625 -33.890625 C 42.847656 -36.242188 41.035156 -38.082031 38.703125 -39.40625 C 36.378906 -40.726562 33.671875 -41.390625 30.578125 -41.390625 C 27.546875 -41.390625 24.863281 -40.726562 22.53125 -39.40625 C 20.207031 -38.082031 18.382812 -36.242188 17.0625 -33.890625 C 15.738281 -31.535156 15.078125 -28.816406 15.078125 -25.734375 Z M 15.078125 -25.734375 "/></g></g></g></svg>